<?xml version="1.0" encoding="UTF-8" standalone="no"?>
<!-- Created with Inkscape (http://www.inkscape.org/) -->
<svg id="svg4357" xmlns:rdf="http://www.w3.org/1999/02/22-rdf-syntax-ns#" xmlns="http://www.w3.org/2000/svg" height="254" viewBox="0 0 272 254" width="272" version="1.1" xmlns:cc="http://creativecommons.org/ns#" xmlns:dc="http://purl.org/dc/elements/1.1/">
 <metadata id="metadata4363">
  <rdf:RDF>
   <cc:Work rdf:about="">
    <dc:format>image/svg+xml</dc:format>
    <dc:type rdf:resource="http://purl.org/dc/dcmitype/StillImage"/>
    <dc:title/>
   </cc:Work>
  </rdf:RDF>
 </metadata>
 <path id="path4961" fill="#984cd1" d="m11.918 253.06c-4.2135-1.272-10.826-5.2729-10.826-6.5501 0-1.3969 3.2358-4.4708 4.7063-4.4708 0.57685 0 1.6128 0.67954 2.3021 1.5101 0.68929 0.83055 3.6328 2.2019 6.5412 3.0474 4.7175 1.3714 5.676 1.3751 8.885 0.0343 3.5522-1.4842 5.765-4.8767 4.8128-7.3788-0.73432-1.9295-5.0387-3.8396-11.747-5.213-7.4934-1.534-10.553-3.086-13.881-7.0408-3.2944-3.9152-3.6427-11.768-0.73344-16.539 4.8773-7.9983 20.307-9.3164 30.839-2.6345 2.0949 1.3291 2.1372 1.5809 0.72432 4.313-1.7812 3.4444-1.7814 3.4445-5.2396 0.93668-4.1498-3.0093-10.24-4.0107-14.819-2.4366-4.6914 1.6128-6.391 3.7456-6.391 8.02 0 4.2548 3.4012 6.9098 10.811 8.439 12.76 2.6334 18.189 6.8478 18.189 14.119 0 8.9438-12.879 15.254-24.174 11.844zm56.424-0.72669c-1.3683-0.26356-2.25-1.1598-2.25-2.2872 0-1.7426-0.18766-1.7602-3.1284-0.29313-3.7591 1.8753-10.754 2.7833-14.397 1.8689-7.2797-1.8271-9.8101-10.654-4.771-16.642 3.6242-4.3071 8.2382-6.0658 15.914-6.0658 3.5104 0 6.3825-0.21922 6.3825-0.48716s-0.67007-1.7829-1.489-3.3666c-2.7694-5.3555-8.6116-5.1174-16.179 0.65918l-4.5912 3.5045-2.0572-2.0572c-2.0036-2.0036-2.0091-2.1102-0.21154-4.0966 1.0151-1.1217 4.1367-3.1358 6.9369-4.4758 11.742-5.6189 20.796-2.3402 24.081 8.7202 2.3549 7.9297 1.7436 25.906-0.87006 25.588-0.61553-0.0749-2.1316-0.3312-3.3692-0.56955zm-7.125-8.9308c5.4796-2.4591 5.875-2.8629 5.875-6v-3.3634h-5.3508c-9.0981 0-13.649 2.5789-13.649 7.7343 0 4.8782 4.61 5.4505 13.125 1.6292zm150.88 8.5131c-6.4073-2.5549-10.19-8.7682-10.266-16.862-0.10555-11.205 7.3151-18.673 17.7-17.811 6.5293 0.54146 11.138 3.6449 13.66 9.1981 4.341 9.5585 0.74996 20.463-8.2949 25.188-3.0892 1.6139-9.1322 1.7495-12.799 0.28727zm12.371-7.906c6.0855-7.2322 3.7009-19.33-4.1895-21.254-3.5285-0.86035-8.0725 1.1711-9.7122 4.3419-2.9908 5.7835-1.1668 16.271 3.2804 18.861 3.5354 2.0592 7.9265 1.2533 10.621-1.9493zm-141.52 7.8428c-0.0842-0.17235-0.42174-7.8517-0.75-17.065l-0.59685-16.752 3.75 0.002c3.6607 0.002 3.7508 0.0912 3.7818 3.7519 0.0264 3.1174 0.2373 3.493 1.25 2.2265 4.3205-5.4033 11.799-7.609 16.774-4.9469 4.3922 2.3506 6.5515 13.226 5.1563 25.97-0.70042 6.3974-0.759 6.5-3.7116 6.5h-3l0.29216-10c0.16069-5.5-0.0875-11.316-0.55148-12.923-1.9339-6.7014-7.4864-5.9854-12.349 1.5925-3.0562 4.7627-3.3304 5.8449-3.3597 13.258l-0.0319 8.0724-3.25 0.31336c-1.7875 0.17235-3.3189 0.17235-3.4032 0zm45.653-1.748c-12.346-6.3395-12.669-25.349-0.53998-31.763 5.0468-2.6688 9.629-2.9191 14.694-0.80274 1.9745 0.825 3.985 1.5 4.4679 1.5 0.48284 0 0.87788-3.1799 0.87788-7.0664v-7.0664l2.75 0.31642 2.75 0.31642 0.26877 22.75 0.26878 22.75h-3.5188c-2.4848 0-3.5188-0.44754-3.5188-1.523 0-1.355-0.26182-1.3515-2.3735 0.0321-4.0492 2.6532-11.54 2.9115-16.126 0.55627zm12.489-5.5596c4.2246-2.1846 6.011-5.3329 6.011-10.593 0-5.5819-2.5093-9.2653-7.415-10.884-4.2662-1.408-7.7418-0.55461-10.74 2.6371-1.922 2.0459-2.3448 3.5781-2.3448 8.4974 0 5.5145 0.26499 6.2382 3.2658 8.9194 3.6322 3.2454 6.899 3.6598 11.223 1.4237zm22.678 6.8276c-0.36667-0.36666-0.66667-11.167-0.66667-24v-23.333h3.5 3.5v8.3922 8.3922l3.7114-1.8922c4.924-2.5104 9.0367-2.3866 14.381 0.43282 10.197 5.3792 11.867 18.365 3.5403 27.52-4.6785 5.1434-10.676 6.4172-17.261 3.6658-3.1567-1.319-3.8073-1.319-5.6904 0-2.2945 1.6071-3.9572 1.8799-5.0145 0.82256zm20.98-7.2597c7.8666-4.7968 6.3293-17.879-2.4126-20.531-3.0521-0.92587-8.8806 1.1144-10.731 3.7565-2.0179 2.881-1.9556 11.61 0.1039 14.55 3.0272 4.3219 8.1632 5.198 13.04 2.2244zm74.742 1.8883c-2.5762-3.2791-4.828-5.962-5.0041-5.962-0.17605 0-2.1887 2.475-4.4726 5.5-4.157 5.5058-6.584 6.626-9.8626 4.5519-1.1778-0.74513-0.53421-2.1043 3.4258-7.2347 2.6819-3.4745 5.2399-6.8047 5.6844-7.4005 0.48866-0.65492-1.5578-3.8942-5.175-8.1915-3.2908-3.9095-5.6462-7.2973-5.2341-7.5284 0.41205-0.23115 1.9388-0.70404 3.3929-1.0509 2.3102-0.55108 3.1932 0.0562 7 4.8144 2.396 2.9948 4.5873 5.4663 4.8695 5.4924 0.28225 0.026 2.4599-2.4453 4.8392-5.4918 3.5496-4.5449 4.7139-5.4221 6.4868-4.8876 4.0114 1.2094 3.8696 2.2039-1.2418 8.708-2.8036 3.5675-5.0975 6.8264-5.0975 7.242 0 0.41556 2.5192 3.8736 5.5983 7.6845s5.4416 7.0321 5.25 7.1581c-0.19158 0.12605-1.5694 0.75317-3.0619 1.3936-2.5982 1.115-2.9126 0.91107-7.3975-4.7975zm-84.446-52.613c-0.84457-2.2214 0.21473-6.3196 6.5333-25.276 7.9527-23.859 11.214-30.31 17.898-35.409 5.8211-4.44 13.588-7.539 20.633-8.2333l6.5856-0.64893 12.344-37.076c8.6883-26.097 13.029-37.762 14.658-39.391 3.4712-3.4712 8.5288-3.145 11.816 0.76225 1.4239 1.6922 2.5889 4.0614 2.5889 5.265s-5.5683 18.88-12.374 39.28l-12.374 37.092 4.8266 4.1575c3.3306 2.8689 5.9925 6.5166 8.5882 11.769 3.5108 7.1036 3.7553 8.1864 3.6663 16.235-0.078 7.0564-0.7078 10.378-3.4643 18.274l-3.3689 9.6501-6.156-3.7336c-9.2379-5.6028-16.246-7.5447-26.844-7.4377-13.462 0.13593-25.888 4.6779-37.917 13.859-2.5304 1.9315-5.0579 3.5118-5.6168 3.5118-0.55886 0-1.4697-1.1931-2.0241-2.6513zm-132.75-3.3877c-2.1034-1.9596-2.1892-2.7864-2.2061-21.25-0.01-10.566-0.12217-35.861-0.25-56.211l-0.23242-37-8.8416-0.5c-13.469-0.752-12.668 1.6-12.668-37.178v-31.966l2.9231-2.9231c2.6836-2.6836 3.5067-2.9231 10.045-2.9231 6.2287 0 7.4304 0.30798 9.5769 2.4545 2.2011 2.2011 2.4546 3.289 2.4546 10.536v8.0817l9.75-0.28621 9.75-0.28621 0.5-8.2184c0.65638-10.789 1.51-11.654 11.972-12.129 7.3915-0.33567 8.081-0.19089 10.47 2.1985 2.3198 2.3198 2.5578 3.3063 2.5578 10.603v8.0455h10.394 10.394l0.36769-8.0967c0.33621-7.4033 0.60697-8.3026 3.1616-10.5 2.401-2.0652 3.8255-2.4033 10.127-2.4033 10.566 0 11.904 1.2958 12.555 12.159l0.5 8.3413 10.12 0.28354 10.12 0.28354 0.47476-8.2013c0.42751-7.3849 0.74465-8.4334 3.1862-10.534 2.2727-1.9549 3.826-2.3323 9.5999-2.3323 5.832 0 7.317 0.36857 9.6824 2.4033 2.5547 2.1974 2.8254 3.0967 3.1616 10.5l0.36769 8.0967h9.2656 9.2656l0.47282-8.1677c0.42545-7.3494 0.74448-8.4014 3.1842-10.5 2.2727-1.9549 3.826-2.3323 9.5999-2.3323 5.7237 0 7.3183 0.38044 9.4305 2.25l2.542 2.25 0.11311 32.83 0.1131 32.83-2.2737 2.4202c-2.0522 2.1845-3.0848 2.4202-10.599 2.4202h-8.3257l-0.001 18.25-0.001 18.25-5.8992 1.7335c-3.2446 0.9534-7.8564 3.2187-10.249 5.0341-8.1088 6.1535-10.959 11.877-21.384 42.942-5.2988 15.79-9.3448 29.178-8.991 29.75 0.44266 0.71625-17.241 1.0406-56.727 1.0406-56.354 0-57.409-0.0361-59.559-2.039zm36.465-15.47c9.1843-6.0178 7.6381-19.228-2.7543-23.533-6.1442-2.545-14.667 1.778-16.911 8.578-3.7991 11.512 9.4934 21.62 19.665 14.955zm-9.1081-37.946c3.4261-3.4261 3.392-9.3161-0.0728-12.571-5.6158-5.2758-14.473-1.4537-14.473 6.2455 0 5.17 3.495 8.7802 8.5 8.7802 2.4792 0 4.3508-0.75988 6.0454-2.4546z"/>
</svg>
